<svg id="Layer_1" enable-background="new 0 0 511.347 511.347" height="512" viewBox="0 0 511.347 511.347" width="512" xmlns="http://www.w3.org/2000/svg"><path d="m490.337 128.003h-85.674c.158-71.284-57.869-127.997-127.663-127.997-69.893 0-127.819 56.812-127.662 127.997h-58.812l-5.943-66.207c-.972-10.827-10.046-19.123-20.916-19.123h-42.667c-11.598 0-21 9.402-21 21s9.402 21 21 21h23.468c24.605 274.127 24.16 269.213 24.208 269.619 2.552 22.11 13.851 41.267 30.19 54.21-32.547 41.564-2.809 102.838 50.134 102.838 43.942 0 74.935-43.826 59.866-85.334h114.936c-15.05 41.455 15.876 85.334 59.866 85.334 35.106 0 63.667-28.561 63.667-63.667s-28.561-63.667-63.667-63.667h-234.526c-15.952 0-29.853-9.624-35.853-23.646l335.611-19.724c9.163-.538 16.914-6.966 19.141-15.87l42.67-170.67c3.314-13.261-6.737-26.093-20.374-26.093zm-213.337-85.997c47.237 0 85.667 38.43 85.667 85.667s-38.43 85.667-85.667 85.667c-47.236 0-85.666-38.43-85.666-85.667s38.43-85.667 85.666-85.667zm-128 427.334c-11.946 0-21.666-9.72-21.666-21.667s9.72-21.667 21.666-21.667c11.947 0 21.667 9.72 21.667 21.667s-9.72 21.667-21.667 21.667zm234.667 0c-11.947 0-21.667-9.72-21.667-21.667s9.72-21.667 21.667-21.667 21.667 9.72 21.667 21.667-9.72 21.667-21.667 21.667zm47.368-169.725-323.399 19.005-13.34-148.617h62.261c17.501 49.653 64.879 85.337 120.443 85.337s102.943-35.685 120.444-85.337h65.996z"/><path d="m240.817 163.855c8.199 8.199 21.495 8.204 29.698.001l6.485-6.485 6.485 6.485c8.201 8.201 21.497 8.2 29.698-.001 8.201-8.2 8.2-21.497-.001-29.698l-6.483-6.483 6.483-6.483c8.201-8.201 8.202-21.498.001-29.698-8.201-8.201-21.497-8.2-29.698-.001l-6.485 6.484-6.485-6.485c-8.201-8.201-21.497-8.2-29.698.001-8.201 8.2-8.2 21.497.001 29.698l6.483 6.483-6.483 6.483c-8.201 8.202-8.202 21.499-.001 29.699z"/></svg>