<svg xmlns="http://www.w3.org/2000/svg" width="67.551" height="60.143" viewBox="0 0 67.551 60.143">

  <g id="shopping-cart" transform="translate(0 -28.072)">
    <g id="Group_595" data-name="Group 595" transform="translate(0 28.072)">
      <g id="Group_594" data-name="Group 594" transform="translate(0 0)">
        <path id="Path_3798" data-name="Path 3798" class="cls-1" d="M14.323,34.96l-2.269-4.61c-1.091-2.278-2.729-2.221-4.729-2.278H2.111a2.111,2.111,0,0,0,0,4.222H7.439c.289,0,.627,0,.872.006l2.225,4.522a2.11,2.11,0,1,0,3.787-1.862Z" transform="translate(0 -28.072)"/>
      </g>
    </g>
    <g id="Group_597" data-name="Group 597" transform="translate(10.318 33.779)">
      <g id="Group_596" data-name="Group 596">
        <path id="Path_3799" data-name="Path 3799" class="cls-1" d="M131.213,71.957a2.112,2.112,0,0,0-2.111,2.111v26.575a2.08,2.08,0,0,1-.41.868l-33.537.006a1.909,1.909,0,0,1-.887-.868L82.254,72.612a2.111,2.111,0,0,0-3.88,1.663l12.018,28.042a5.632,5.632,0,0,0,4.7,3.416h33.946c2.575,0,4.285-3.052,4.285-5.071V74.068A2.112,2.112,0,0,0,131.213,71.957Z" transform="translate(-78.202 -71.332)"/>
      </g>
    </g>
    <g id="Group_599" data-name="Group 599" transform="translate(14.764 71.319)">
      <g id="Group_598" data-name="Group 598" transform="translate(0 0)">
        <path id="Path_3800" data-name="Path 3800" class="cls-1" d="M120.356,355.864a8.448,8.448,0,1,0,8.446,8.448A8.459,8.459,0,0,0,120.356,355.864Zm0,12.674a4.226,4.226,0,1,1,4.224-4.226A4.233,4.233,0,0,1,120.356,368.538Z" transform="translate(-111.904 -355.864)"/>
      </g>
    </g>
    <g id="Group_601" data-name="Group 601" transform="translate(50.654 71.319)">
      <g id="Group_600" data-name="Group 600" transform="translate(0 0)">
        <path id="Path_3801" data-name="Path 3801" class="cls-1" d="M392.384,355.864a8.448,8.448,0,1,0,8.448,8.448A8.457,8.457,0,0,0,392.384,355.864Zm0,12.674a4.226,4.226,0,1,1,4.226-4.226A4.231,4.231,0,0,1,392.384,368.538Z" transform="translate(-383.936 -355.864)"/>
      </g>
    </g>
    <g id="Group_603" data-name="Group 603" transform="translate(10.555 34.405)">
      <g id="Group_602" data-name="Group 602" transform="translate(0 0)">
        <path id="Path_3802" data-name="Path 3802" class="cls-1" d="M134.885,76.072H82.111a2.111,2.111,0,0,0,0,4.222h52.774a2.111,2.111,0,0,0,0-4.222Z" transform="translate(-80 -76.072)"/>
      </g>
    </g>
    <g id="Group_605" data-name="Group 605" transform="translate(27.442 78.735)">
      <g id="Group_604" data-name="Group 604" transform="translate(0 0)">
        <path id="Path_3803" data-name="Path 3803" class="cls-1" d="M233.331,412.072H210.111a2.111,2.111,0,0,0,0,4.222h23.221a2.111,2.111,0,0,0,0-4.222Z" transform="translate(-208 -412.072)"/>
      </g>
    </g>
    <g id="Group_607" data-name="Group 607" transform="translate(22.583 64.513)">
      <g id="Group_606" data-name="Group 606" transform="translate(0 0)">
        <path id="Path_3804" data-name="Path 3804" class="cls-1" d="M176.975,304.447a2.106,2.106,0,0,0-2.772,1.1l-2.862,6.654a2.108,2.108,0,0,0,1.1,2.772,2.087,2.087,0,0,0,.834.173,2.109,2.109,0,0,0,1.938-1.277l2.862-6.654A2.108,2.108,0,0,0,176.975,304.447Z" transform="translate(-171.168 -304.273)"/>
      </g>
    </g>
    <g id="Group_609" data-name="Group 609" transform="translate(52.774 40.738)">
      <g id="Group_608" data-name="Group 608">
        <path id="Path_3805" data-name="Path 3805" class="cls-1" d="M402.111,124.072A2.112,2.112,0,0,0,400,126.183v16.888a2.111,2.111,0,0,0,4.222,0V126.183A2.112,2.112,0,0,0,402.111,124.072Z" transform="translate(-400 -124.072)"/>
      </g>
    </g>
    <g id="Group_611" data-name="Group 611" transform="translate(44.33 40.738)">
      <g id="Group_610" data-name="Group 610">
        <path id="Path_3806" data-name="Path 3806" class="cls-1" d="M338.111,124.072A2.112,2.112,0,0,0,336,126.183v16.888a2.111,2.111,0,0,0,4.222,0V126.183A2.112,2.112,0,0,0,338.111,124.072Z" transform="translate(-336 -124.072)"/>
      </g>
    </g>
    <g id="Group_613" data-name="Group 613" transform="translate(35.886 40.738)">
      <g id="Group_612" data-name="Group 612">
        <path id="Path_3807" data-name="Path 3807" class="cls-1" d="M274.111,124.072A2.112,2.112,0,0,0,272,126.183v16.888a2.111,2.111,0,0,0,4.222,0V126.183A2.112,2.112,0,0,0,274.111,124.072Z" transform="translate(-272 -124.072)"/>
      </g>
    </g>
    <g id="Group_615" data-name="Group 615" transform="translate(27.442 40.738)">
      <g id="Group_614" data-name="Group 614">
        <path id="Path_3808" data-name="Path 3808" class="cls-1" d="M210.111,124.072A2.112,2.112,0,0,0,208,126.183v16.888a2.111,2.111,0,0,0,4.222,0V126.183A2.112,2.112,0,0,0,210.111,124.072Z" transform="translate(-208 -124.072)"/>
      </g>
    </g>
  </g>
</svg>
