<?xml version="1.0" encoding="iso-8859-1"?>
<!-- Generator: Adobe Illustrator 19.0.0, SVG Export Plug-In . SVG Version: 6.00 Build 0)  -->
<svg version="1.1" id="Capa_1" xmlns="http://www.w3.org/2000/svg" xmlns:xlink="http://www.w3.org/1999/xlink" x="0px" y="0px"
	 viewBox="0 0 512 512" style="enable-background:new 0 0 512 512;" xml:space="preserve">
<g>
	<g>
		<g>
			<path d="M320,160H32c-17.673,0-32,14.327-32,32v288c0,17.673,14.327,32,32,32h288c17.673,0,32-14.327,32-32V192
				C352,174.327,337.673,160,320,160z M320,480H32V192h288V480z"/>
			<path d="M480,0H192c-17.673,0-32,14.327-32,32v80h32V32h288v288h-80v32h80c17.673,0,32-14.327,32-32V32
				C512,14.327,497.673,0,480,0z"/>
		</g>
	</g>
</g>
<g>
</g>
<g>
</g>
<g>
</g>
<g>
</g>
<g>
</g>
<g>
</g>
<g>
</g>
<g>
</g>
<g>
</g>
<g>
</g>
<g>
</g>
<g>
</g>
<g>
</g>
<g>
</g>
<g>
</g>
</svg>
