<svg xmlns="http://www.w3.org/2000/svg" width="25" height="25" viewBox="0 0 25 25">
    <g fill="#E15517">
        <path d="M0 7.525c5.18 10 13.57 10 18.75 0-5.18-10-13.57-10-18.75 0zm9.375 5.625c-2.66 0-5.36-2.035-7.5-5.625 2.14-3.59 4.84-5.625 7.5-5.625s5.36 2.035 7.5 5.625c-2.14 3.59-4.84 5.625-7.5 5.625z" transform="translate(3.125 4.167)"/>
        <path d="M9.375 3.775c-2.07 0-3.75 1.68-3.75 3.75 0 2.07 1.68 3.75 3.75 3.75 2.07 0 3.75-1.68 3.75-3.75 0-2.07-1.68-3.75-3.75-3.75zm-.935 2.81c-.52 0-.94-.42-.94-.94s.42-.94.94-.94.94.42.94.94-.425.94-.94.94z" transform="translate(3.125 4.167)"/>
    </g>
</svg>
