<svg height="512" viewBox="0 0 192 192" width="512" xmlns="http://www.w3.org/2000/svg"><g id="_21-feedback" data-name="21-feedback"><path d="m56 120a24 24 0 1 0 -24 24 24.027 24.027 0 0 0 24-24zm-24 8a8 8 0 1 1 8-8 8.009 8.009 0 0 1 -8 8z"/><path d="m40 144h-16a24.027 24.027 0 0 0 -24 24v16a8 8 0 0 0 8 8h48a8 8 0 0 0 8-8v-16a24.027 24.027 0 0 0 -24-24zm8 32h-32v-8a8.009 8.009 0 0 1 8-8h16a8.009 8.009 0 0 1 8 8z"/><path d="m120 0c-39.7 0-72 28.71-72 64 0 17.366 7.819 33.756 21.647 45.761l-5.236 15.709c-2.2 6.607 4.912 12.814 11.167 9.685l21.161-10.58a79.862 79.862 0 0 0 23.261 3.425c39.7 0 72-28.71 72-64s-32.3-64-72-64zm0 112a63.7 63.7 0 0 1 -21.238-3.6 8 8 0 0 0 -6.238.39l-6.824 3.417.894-2.683a8 8 0 0 0 -2.868-8.989c-12.538-9.16-19.726-22.477-19.726-36.535 0-26.468 25.122-48 56-48s56 21.532 56 48-25.122 48-56 48z"/><circle cx="120" cy="64" r="8"/><circle cx="144" cy="64" r="8"/><circle cx="96" cy="64" r="8"/></g></svg>