<svg xmlns="http://www.w3.org/2000/svg" width="25" height="25" viewBox="0 0 25 25">
    <g fill="#E15517">
        <path d="M17.425 0l-3.47 3.47C9.255.135 3.775 2.085 0 9.375c1.01 1.95 2.145 3.51 3.35 4.7L0 17.425l1.325 1.325L18.75 1.325 17.425 0zM8.44 8.435c-.52 0-.94-.42-.94-.94s.42-.94.94-.94.94.42.94.94-.425.94-.94.94zm2.835-2.285c-.555-.33-1.205-.525-1.9-.525-2.07 0-3.75 1.68-3.75 3.75 0 .695.19 1.345.525 1.9L4.605 12.82c-.97-.895-1.895-2.045-2.73-3.445 2.14-3.59 4.84-5.625 7.5-5.625 1.1 0 2.205.36 3.275 1.025L11.275 6.15zM9.805 13.085c1.725-.205 3.075-1.555 3.275-3.275l-3.275 3.275z" transform="translate(3.125 2.43)"/>
        <path d="M16.725 6.165l-1.23 1.23c.48.6.945 1.25 1.38 1.98-2.14 3.59-4.84 5.625-7.5 5.625-.435 0-.87-.075-1.305-.18L6.59 16.3c4.25 1.755 8.86-.55 12.16-6.925-.63-1.22-1.31-2.285-2.025-3.21z" transform="translate(3.125 2.43)"/>
    </g>
</svg>
