<svg xmlns="http://www.w3.org/2000/svg" width="70" height="67.667" viewBox="0 0 70 67.667">
 
  <g id="purchase-order_1_" data-name="purchase-order (1)" transform="translate(-16 -24)">
    <path id="Path_3809" data-name="Path 3809" class="cls-1" d="M85.694,91.288a1.167,1.167,0,0,0,.3-.89L82.5,50.731a1.167,1.167,0,0,0-1.162-1.065H75.5v-3.5a8.167,8.167,0,0,0-16.333,0v3.5h-3.5V29.833A5.84,5.84,0,0,0,49.834,24h-28A5.84,5.84,0,0,0,16,29.833v56a5.84,5.84,0,0,0,5.833,5.833h63a1.167,1.167,0,0,0,.86-.379ZM21.833,26.333h28a3.506,3.506,0,0,1,3.3,2.333h-34.6a3.506,3.506,0,0,1,3.3-2.333Zm28,63h-28A3.506,3.506,0,0,1,18.534,87h34.6A3.506,3.506,0,0,1,49.834,89.334Zm3.5-4.667h-35V31h35Zm8.167-38.5a5.833,5.833,0,1,1,11.667,0v3.5H61.5Zm-7,43.167a5.8,5.8,0,0,0,1.17-3.5V52h3.5v4.667a1.167,1.167,0,0,0,2.333,0V52H73.167v4.667a1.167,1.167,0,0,0,2.333,0V52h4.765L83.56,89.334Z"/>
    <circle id="Ellipse_46" data-name="Ellipse 46" class="cls-1" cx="1.5" cy="1.5" r="1.5" transform="translate(59 59.834)"/>
    <circle id="Ellipse_47" data-name="Ellipse 47" class="cls-1" cx="1.5" cy="1.5" r="1.5" transform="translate(73 59.834)"/>
    <path id="Path_3810" data-name="Path 3810" class="cls-1" d="M70.166,160.5H51.5a3.5,3.5,0,0,0,0,7h21a1.167,1.167,0,0,0,0-2.333H71.132a3.489,3.489,0,0,0-.047-2.457,3.5,3.5,0,0,0,.448-6.6l2.1-10.478.878-3.8h2.659a1.167,1.167,0,1,0,0-2.333h-3.5a1.167,1.167,0,0,0-1.107.8l-.9,3.869H69a8.167,8.167,0,0,0-16.333,0h-3.5a1.167,1.167,0,0,0-1.144,1.4l2.333,11.667a1.167,1.167,0,0,0,1.144.938H70.166a1.167,1.167,0,1,1,0,2.333ZM51.5,165.167A1.167,1.167,0,1,1,52.666,164,1.167,1.167,0,0,1,51.5,165.167Zm13.034,0H54.8a3.492,3.492,0,0,0,0-2.333h9.735A3.492,3.492,0,0,0,64.534,165.167Zm3.3,0A1.167,1.167,0,1,1,69,164,1.167,1.167,0,0,1,67.833,165.167ZM51.289,150l-.7-3.5h2.418a8.141,8.141,0,0,0,1.176,2.4l.11,1.1Zm1.167,5.833-.7-3.5h2.771l.35,3.5Zm7.21,0H57.222l-.35-3.5h2.794Zm4.778,0H62v-3.5h2.794ZM60.833,150a5.833,5.833,0,1,1,5.833-5.833A5.833,5.833,0,0,1,60.833,150Zm8.377,5.833H66.789l.35-3.5H69.91ZM70.377,150h-3l.11-1.1a8.142,8.142,0,0,0,1.176-2.4h2.418Z" transform="translate(-27.333 -95.667)"/>
    <path id="Path_3811" data-name="Path 3811" class="cls-1" d="M117.008,176.342l-2.675,2.675-.342-.342a1.167,1.167,0,0,0-1.65,1.65l1.167,1.167a1.167,1.167,0,0,0,1.65,0l3.5-3.5a1.167,1.167,0,0,0-1.65-1.65Z" transform="translate(-82 -129.833)"/>
    <circle id="Ellipse_48" data-name="Ellipse 48" class="cls-1" cx="1" cy="1" r="1" transform="translate(49 69.834)"/>
  </g>
</svg>
