<svg xmlns="http://www.w3.org/2000/svg" width="187" height="23" viewBox="0 0 187 23">
  <g fill="#4A4A4A" fill-rule="evenodd">
    <path d="M120.199039,11.4251836 L120.199039,14.0361622 L122.054191,14.0361622 L122.054191,16.6265692 C122.06021,16.8582712 122.047076,17.1078381 122.007128,17.3075999 C121.93325,17.7904929 121.469189,18.6139012 120.152524,18.6139012 C118.84352,18.6139012 118.387667,17.7904929 118.308864,17.3075999 C118.275482,17.1078381 118.261254,16.8582712 118.261254,16.6265692 L118.261254,8.4439148 C118.261254,8.15428727 118.280955,7.83813311 118.34334,7.59776933 C118.433088,7.16197464 118.823819,6.30175382 120.142673,6.30175382 C121.527196,6.30175382 121.872506,7.20799023 121.951856,7.59776933 C122.003844,7.85599799 122.007128,8.28854452 122.007128,8.28854452 L122.007128,9.28193987 L126.565109,9.28193987 L126.565109,8.69510578 C126.565109,8.69510578 126.585904,8.08174505 126.530633,7.50952767 C126.188059,4.15147243 123.390556,3.08878302 120.183169,3.08878302 C116.969215,3.08878302 114.229173,4.16121691 113.829686,7.50952767 C113.793568,7.81647872 113.738296,8.36650034 113.738296,8.69510578 L113.738296,16.2221733 C113.738296,16.5496961 113.749241,16.8035938 113.810532,17.4028792 C114.108232,20.6689033 116.969215,21.8263307 120.170035,21.8263307 C123.390556,21.8263307 126.232386,20.6689033 126.534463,17.4028792 C126.58864,16.8035938 126.594113,16.5496961 126.601227,16.2221733 L126.601227,11.4251836 L120.199039,11.4251836 Z M88.7709127,3.5705933 L84.1932307,3.5705933 L84.1932307,16.8155038 C84.2008921,17.0461231 84.1932307,17.3054344 84.1532821,17.4954517 C84.0580619,17.9404495 83.6771812,18.7963395 82.414146,18.7963395 C81.167528,18.7963395 80.7767969,17.9404495 80.6881437,17.4954517 C80.6421753,17.3054344 80.6367029,17.0461231 80.6421753,16.8155038 L80.6421753,3.5705933 L76.0666823,3.5705933 L76.0666823,16.4046116 C76.0606626,16.7348411 76.0869303,17.4109996 76.106631,17.5880243 C76.4229371,20.9325455 79.0869127,22.0185134 82.414146,22.0185134 C85.7473989,22.0185134 88.4102801,20.9325455 88.7320585,17.5880243 C88.7572317,17.4109996 88.7906135,16.7348411 88.7709127,16.4046116 L88.7709127,3.5705933 Z M46.7136988,3.5705933 L44.4306039,17.5652872 L42.1486034,3.5705933 L34.7646628,3.5705933 L34.3733845,21.4744467 L38.8968895,21.4744467 L39.0194718,4.90017313 L42.1316389,21.4744467 L46.720813,21.4744467 L49.8357162,4.90017313 L49.9588458,21.4744467 L54.4938429,21.4744467 L54.0888835,3.5705933 L46.7136988,3.5705933 Z M19.3762088,3.5705933 L16.0238023,21.4744467 L20.9128652,21.4744467 L23.439483,4.90017313 L25.9048096,21.4744467 L30.7599435,21.4744467 L27.4217654,3.5705933 L19.3762088,3.5705933 Z M104.7679,17.9853824 L100.50543,3.5705933 L93.7891248,3.5705933 L93.7891248,21.2876776 L98.2321852,21.2876776 L97.9744341,6.41164987 L102.551569,21.2876776 L108.993158,21.2876776 L108.993158,3.5705933 L104.521094,3.5705933 L104.7679,17.9853824 Z M63.6710965,8.22953629 C63.5901047,7.8760283 63.6136361,7.50086592 63.6552265,7.30381093 C63.7843757,6.73105219 64.1740122,6.10578154 65.295859,6.10578154 C66.3410918,6.10578154 66.953456,6.75054114 66.953456,7.71795122 C66.953456,8.04439122 66.953456,8.81258087 66.953456,8.81258087 L71.4156698,8.81258087 L71.4156698,7.56528774 C71.4156698,3.70755734 67.9198859,3.10123429 65.3883429,3.10123429 C62.2001092,3.10123429 59.5968775,4.1411866 59.1213239,7.04341683 C58.9954582,7.83380223 58.9642654,8.53486326 59.1645561,9.42973111 C59.9394512,13.0487218 66.3088045,14.0989599 67.233644,16.3878295 C67.3967223,16.8209173 67.3502067,17.3741871 67.2664786,17.6995444 C67.1280263,18.2955816 66.723067,18.8943256 65.5224173,18.8943256 C64.3961926,18.8943256 63.7181594,18.2544383 63.7181594,17.2891936 L63.7170649,15.5703761 L58.9144663,15.5703761 L58.9144663,16.936227 C58.9144663,20.894109 62.0479758,22.0883488 65.4228192,22.0883488 C68.6553796,22.0883488 71.3253749,20.9953433 71.7533184,18.0335634 C71.9574397,16.5025977 71.8036646,15.5064956 71.7215783,15.1307919 C70.973498,11.4186873 64.1844098,10.3018619 63.6710965,8.22953629 Z M4.81080722,8.18568615 C4.72324845,7.82514048 4.74349642,7.44402313 4.79220099,7.24534406 C4.91587775,6.67475076 5.30715601,6.03865292 6.44870348,6.03865292 C7.50761737,6.03865292 8.13092637,6.68990884 8.13092637,7.66489796 C8.13092637,7.99566883 8.13092637,8.7730616 8.13092637,8.7730616 L12.6451283,8.7730616 L12.6451283,7.51548263 C12.6451283,3.62093976 9.09516734,3 6.53626226,3 C3.32176087,3 0.694997745,4.05511038 0.213971747,6.97953637 C0.0826335901,7.78183169 0.0601966551,8.48776495 0.25008974,9.39237728 C1.03374074,13.0525113 7.4665742,14.1108699 8.40181132,16.4278901 C8.5774761,16.8582712 8.5243936,17.4109996 8.43738207,17.7493495 C8.2890794,18.351883 7.88083663,18.9592888 6.66978938,18.9592888 C5.53918675,18.9592888 4.86279524,18.3069502 4.86279524,17.3287129 L4.85677558,15.6061058 L1.3500312e-13,15.6061058 L1.3500312e-13,16.9752049 C1.3500312e-13,20.9780198 3.17783615,22.1820041 6.5794944,22.1820041 C9.84926725,22.1820041 12.5351326,21.0797954 12.9729264,18.0828272 C13.1907289,16.5388689 13.0271034,15.5330222 12.9537729,15.1519049 C12.1898227,11.3948674 5.32576225,10.2812902 4.81080722,8.18568615 L4.81080722,8.18568615 Z"/>
    <text font-family="SamsungSharpSans-Bold, Samsung Sharp Sans" font-size="24" font-weight="bold" letter-spacing="1.5">
      <tspan x="134.646" y="20">Elite</tspan>
    </text>
  </g>
</svg>
