<svg xmlns="http://www.w3.org/2000/svg" width="256.194" height="490.969" viewBox="0 0 256.194 490.969">
  <g id="breadcums" transform="translate(-117.281 0.168)" opacity="0.55">
    <path id="Path_4098" data-name="Path 4098" d="M135.685,3.128A10.666,10.666,0,1,0,120.6,18.211L347.717,245.346,120.581,472.461a10.667,10.667,0,1,0,14.82,15.346c.088-.087.175-.174.261-.263L370.331,252.877a10.667,10.667,0,0,0,0-15.083Z" fill="#f44336"/>
    <path id="Path_4099" data-name="Path 4099" d="M128.133,490.68a10.667,10.667,0,0,1-7.552-18.219L347.717,245.346,120.581,18.232a10.68,10.68,0,1,1,15.1-15.1L370.352,237.8a10.667,10.667,0,0,1,0,15.083L135.685,487.544A10.663,10.663,0,0,1,128.133,490.68Z"/>
  </g>
</svg>
